{
  "accessors": [
    {
      "bufferView": 2,
      "componentType": 5126,
      "count": 490,
      "max": [
        65.850334167480469,
        23.799873352050781,
        83
      ],
      "min": [
        -65.749664306640625,
        17.299873352050781,
        79.599990844726562
      ],
      "type": "VEC3"
    },
    {
      "bufferView": 2,
      "byteOffset": 5880,
      "componentType": 5126,
      "count": 490,
      "max": [
        1,
        1,
        1
      ],
      "min": [
        -1,
        -1,
        -1
      ],
      "type": "VEC3"
    },
    {
      "bufferView": 0,
      "componentType": 5125,
      "count": 1296,
      "max": [
        489
      ],
      "min": [
        0
      ],
      "type": "SCALAR"
    },
    {
      "bufferView": 2,
      "byteOffset": 11760,
      "componentType": 5126,
      "count": 28432,
      "max": [
        39.473052978515625,
        -21.990423202514648,
        69.821731567382812
      ],
      "min": [
        -39.473052978515625,
        -24.379276275634766,
        25.518924713134766
      ],
      "type": "VEC3"
    },
    {
      "bufferView": 2,
      "byteOffset": 352944,
      "componentType": 5126,
      "count": 28432,
      "max": [
        0.99988889694213867,
        0.99997282028198242,
        0.99990200996398926
      ],
      "min": [
        -0.99988889694213867,
        -1,
        -1
      ],
      "type": "VEC3"
    },
    {
      "bufferView": 3,
      "componentType": 5126,
      "count": 28432,
      "max": [
        0.99998539686203003,
        0.99982309341430664,
        1,
        1
      ],
      "min": [
        -0.99998539686203003,
        -0.99971389770507812,
        -0.99891501665115356,
        -1
      ],
      "type": "VEC4"
    },
    {
      "bufferView": 1,
      "componentType": 5126,
      "count": 28432,
      "max": [
        0.85210102796554565,
        0.91275602579116821
      ],
      "min": [
        0.17564499378204346,
        0.30841699242591858
      ],
      "type": "VEC2"
    },
    {
      "bufferView": 0,
      "byteOffset": 5184,
      "componentType": 5125,
      "count": 132936,
      "max": [
        28431
      ],
      "min": [
        0
      ],
      "type": "SCALAR"
    },
    {
      "bufferView": 2,
      "byteOffset": 694128,
      "componentType": 5126,
      "count": 4659,
      "max": [
        88.996589660644531,
        22.9998779296875,
        83
      ],
      "min": [
        -88.996589660644531,
        -25.996124267578125,
        -7.9999999798019417e-06
      ],
      "type": "VEC3"
    },
    {
      "bufferView": 2,
      "byteOffset": 750036,
      "componentType": 5126,
      "count": 4659,
      "max": [
        1,
        1,
        1
      ],
      "min": [
        -1,
        -1,
        -1
      ],
      "type": "VEC3"
    },
    {
      "bufferView": 3,
      "byteOffset": 454912,
      "componentType": 5126,
      "count": 4659,
      "max": [
        1,
        1,
        1,
        1
      ],
      "min": [
        -1,
        -1,
        -1,
        -1
      ],
      "type": "VEC4"
    },
    {
      "bufferView": 1,
      "byteOffset": 227456,
      "componentType": 5126,
      "count": 4659,
      "max": [
        0.99349498748779297,
        0.99756300449371338
      ],
      "min": [
        0.0024290001019835472,
        0.0024309998843818903
      ],
      "type": "VEC2"
    },
    {
      "bufferView": 0,
      "byteOffset": 536928,
      "componentType": 5125,
      "count": 16080,
      "max": [
        4658
      ],
      "min": [
        0
      ],
      "type": "SCALAR"
    },
    {
      "bufferView": 2,
      "byteOffset": 805944,
      "componentType": 5126,
      "count": 96,
      "max": [
        89.244377136230469,
        23.299873352050781,
        85
      ],
      "min": [
        -90.637542724609375,
        -26.941085815429688,
        83
      ],
      "type": "VEC3"
    },
    {
      "bufferView": 2,
      "byteOffset": 807096,
      "componentType": 5126,
      "count": 96,
      "max": [
        1,
        1,
        1
      ],
      "min": [
        -1,
        -1,
        -1
      ],
      "type": "VEC3"
    },
    {
      "bufferView": 3,
      "byteOffset": 529456,
      "componentType": 5126,
      "count": 96,
      "max": [
        0.99773573875427246,
        1,
        1,
        1
      ],
      "min": [
        -0.64639931917190552,
        -1,
        -1,
        1
      ],
      "type": "VEC4"
    },
    {
      "bufferView": 1,
      "byteOffset": 264728,
      "componentType": 5126,
      "count": 96,
      "max": [
        1.5396560430526733,
        1.9838709831237793
      ],
      "min": [
        -0.47604900598526001,
        -0.99906802177429199
      ],
      "type": "VEC2"
    },
    {
      "bufferView": 0,
      "byteOffset": 601248,
      "componentType": 5125,
      "count": 234,
      "max": [
        95
      ],
      "min": [
        0
      ],
      "type": "SCALAR"
    }
  ],
  "asset": {
    "extras": {
      "author": "Interiors3D (https://sketchfab.com/Interiors3D)",
      "license": "CC-BY-4.0 (http://creativecommons.org/licenses/by/4.0/)",
      "source": "https://sketchfab.com/3d-models/mfb200-974bbc2020254eae9ee41049fc28a366",
      "title": "MFB200"
    },
    "generator": "Sketchfab-9.64.0",
    "version": "2.0"
  },
  "bufferViews": [
    {
      "buffer": 0,
      "byteLength": 602184,
      "byteOffset": 0,
      "name": "floatBufferViews",
      "target": 34963
    },
    {
      "buffer": 0,
      "byteLength": 265496,
      "byteOffset": 602184,
      "byteStride": 8,
      "name": "floatBufferViews",
      "target": 34962
    },
    {
      "buffer": 0,
      "byteLength": 808248,
      "byteOffset": 867680,
      "byteStride": 12,
      "name": "floatBufferViews",
      "target": 34962
    },
    {
      "buffer": 0,
      "byteLength": 530992,
      "byteOffset": 1675928,
      "byteStride": 16,
      "name": "floatBufferViews",
      "target": 34962
    }
  ],
  "buffers": [
    {
      "byteLength": 2206920,
      "uri": "scene.bin"
    }
  ],
  "images": [
    {
      "uri": "textures/metal2_baseColor.jpeg"
    },
    {
      "uri": "textures/metal2_metallicRoughness.png"
    },
    {
      "uri": "textures/metal2_normal.png"
    },
    {
      "uri": "textures/paint_baseColor.jpeg"
    },
    {
      "uri": "textures/paint_metallicRoughness.png"
    },
    {
      "uri": "textures/paint_normal.png"
    },
    {
      "uri": "textures/material_baseColor.jpeg"
    },
    {
      "uri": "textures/material_metallicRoughness.png"
    },
    {
      "uri": "textures/material_normal.png"
    }
  ],
  "materials": [
    {
      "doubleSided": true,
      "name": "metal",
      "pbrMetallicRoughness": {
        "baseColorFactor": [
          0.22623799999999999,
          0.22623799999999999,
          0.22623799999999999,
          1
        ],
        "metallicFactor": 1,
        "roughnessFactor": 0.22899878254809039
      }
    },
    {
      "doubleSided": true,
      "name": "metal2",
      "normalTexture": {
        "index": 2,
        "scale": 1,
        "texCoord": 0
      },
      "pbrMetallicRoughness": {
        "baseColorFactor": [
          1,
          1,
          1,
          1
        ],
        "baseColorTexture": {
          "index": 0,
          "texCoord": 0
        },
        "metallicFactor": 1,
        "metallicRoughnessTexture": {
          "index": 1,
          "texCoord": 0
        },
        "roughnessFactor": 1
      }
    },
    {
      "doubleSided": true,
      "name": "paint",
      "normalTexture": {
        "index": 5,
        "scale": 1,
        "texCoord": 0
      },
      "pbrMetallicRoughness": {
        "baseColorFactor": [
          1,
          1,
          1,
          1
        ],
        "baseColorTexture": {
          "index": 3,
          "texCoord": 0
        },
        "metallicFactor": 0,
        "metallicRoughnessTexture": {
          "index": 4,
          "texCoord": 0
        },
        "roughnessFactor": 1
      }
    },
    {
      "doubleSided": true,
      "name": "material",
      "normalTexture": {
        "index": 8,
        "scale": 1,
        "texCoord": 0
      },
      "pbrMetallicRoughness": {
        "baseColorFactor": [
          1,
          1,
          1,
          1
        ],
        "baseColorTexture": {
          "index": 6,
          "texCoord": 0
        },
        "metallicFactor": 0,
        "metallicRoughnessTexture": {
          "index": 7,
          "texCoord": 0
        },
        "roughnessFactor": 1
      }
    }
  ],
  "meshes": [
    {
      "primitives": [
        {
          "attributes": {
            "NORMAL": 1,
            "POSITION": 0
          },
          "indices": 2,
          "material": 0,
          "mode": 4
        }
      ]
    },
    {
      "primitives": [
        {
          "attributes": {
            "NORMAL": 4,
            "POSITION": 3,
            "TANGENT": 5,
            "TEXCOORD_0": 6
          },
          "indices": 7,
          "material": 1,
          "mode": 4
        }
      ]
    },
    {
      "primitives": [
        {
          "attributes": {
            "NORMAL": 9,
            "POSITION": 8,
            "TANGENT": 10,
            "TEXCOORD_0": 11
          },
          "indices": 12,
          "material": 2,
          "mode": 4
        }
      ]
    },
    {
      "primitives": [
        {
          "attributes": {
            "NORMAL": 14,
            "POSITION": 13,
            "TANGENT": 15,
            "TEXCOORD_0": 16
          },
          "indices": 17,
          "material": 3,
          "mode": 4
        }
      ]
    }
  ],
  "nodes": [
    {
      "children": [
        1
      ],
      "name": "RootNode (gltf orientation matrix)",
      "rotation": [
        -0.70710678118654746,
        -0,
        -0,
        0.70710678118654757
      ]
    },
    {
      "children": [
        2
      ],
      "name": "RootNode (model correction matrix)"
    },
    {
      "children": [
        3,
        4,
        5,
        6
      ],
      "name": "W40 - MFB200 - Sketchfab - mesh.obj.cleaner.materialmerger.gles"
    },
    {
      "mesh": 0,
      "name": ""
    },
    {
      "mesh": 1,
      "name": ""
    },
    {
      "mesh": 2,
      "name": ""
    },
    {
      "mesh": 3,
      "name": ""
    }
  ],
  "samplers": [
    {
      "magFilter": 9729,
      "minFilter": 9987,
      "wrapS": 10497,
      "wrapT": 10497
    }
  ],
  "scene": 0,
  "scenes": [
    {
      "name": "OSG_Scene",
      "nodes": [
        0
      ]
    }
  ],
  "textures": [
    {
      "sampler": 0,
      "source": 0
    },
    {
      "sampler": 0,
      "source": 1
    },
    {
      "sampler": 0,
      "source": 2
    },
    {
      "sampler": 0,
      "source": 3
    },
    {
      "sampler": 0,
      "source": 4
    },
    {
      "sampler": 0,
      "source": 5
    },
    {
      "sampler": 0,
      "source": 6
    },
    {
      "sampler": 0,
      "source": 7
    },
    {
      "sampler": 0,
      "source": 8
    }
  ]
}

